<?xml version="1.0" encoding="utf-8"?>
<!-- Generator: Adobe Illustrator 24.1.1, SVG Export Plug-In . SVG Version: 6.00 Build 0)  -->
<svg version="1.1" id="Ebene_1" xmlns="http://www.w3.org/2000/svg" xmlns:xlink="http://www.w3.org/1999/xlink" x="0px" y="0px"
	 viewBox="0 0 1920 1080" style="enable-background:new 0 0 1920 1080;" xml:space="preserve">
<style type="text/css">
	.st0{fill:url(#SVGID_1_);}
	.st1{fill:url(#SVGID_2_);stroke:url(#SVGID_3_);stroke-miterlimit:10;}
	.st2{fill:url(#SVGID_4_);}
	.st3{fill:url(#SVGID_5_);}
	.st4{fill:#FFFFFF;}
</style>
<g>
	
		<linearGradient id="SVGID_1_" gradientUnits="userSpaceOnUse" x1="17.7924" y1="539.7583" x2="75.4348" y2="630.8461" gradientTransform="matrix(0.9743 0.08 -0.0513 0.9285 48.4772 -6.845)">
		<stop  offset="3.862647e-06" style="stop-color:#2D388A"/>
		<stop  offset="0.9972" style="stop-color:#00AEEF"/>
	</linearGradient>
	<polygon class="st0" points="84.86,472.16 11.03,553.3 96.96,581.2 	"/>
	<linearGradient id="SVGID_2_" gradientUnits="userSpaceOnUse" x1="389.4483" y1="443.4271" x2="389.4483" y2="691">
		<stop  offset="0.2369" style="stop-color:#2D388A"/>
		<stop  offset="0.9972" style="stop-color:#00AEEF"/>
	</linearGradient>
	<linearGradient id="SVGID_3_" gradientUnits="userSpaceOnUse" x1="296.6285" y1="410.4543" x2="472.1377" y2="714.4451">
		<stop  offset="0" style="stop-color:#2D388A"/>
		<stop  offset="0.9972" style="stop-color:#00AEEF"/>
	</linearGradient>
	<path class="st1" d="M571.99,656.16c-173.54,68.29-313.79,19.21-365.08-4.44l19.75-200.12l318-8.17L571.99,656.16z"/>
	<g>
		<linearGradient id="SVGID_4_" gradientUnits="userSpaceOnUse" x1="314.8827" y1="339.4362" x2="468.3397" y2="605.2314">
			<stop  offset="3.042168e-06" style="stop-color:#2D388A"/>
			<stop  offset="0.9972" style="stop-color:#00AEEF"/>
		</linearGradient>
		<polygon class="st2" points="698.53,472.33 391.61,578.95 84.7,472.33 231.63,421.3 253.59,413.66 391.61,365.72 		"/>
		<linearGradient id="SVGID_5_" gradientUnits="userSpaceOnUse" x1="314.8827" y1="339.4362" x2="468.3397" y2="605.2314">
			<stop  offset="3.042168e-06" style="stop-color:#2D388A"/>
			<stop  offset="0.9972" style="stop-color:#00AEEF"/>
		</linearGradient>
		<polygon class="st3" points="698.53,472.33 391.61,578.95 84.7,472.33 231.63,421.3 253.59,413.66 391.61,365.72 		"/>
	</g>
</g>
<g>
	<path class="st4" d="M874.34,627.71c-11,0-21.17-1.69-30.52-5.07c-9.35-3.38-16.61-7.66-21.8-12.84c-2.36-2.51-3.34-5.38-2.95-8.6
		c0.39-3.22,1.92-5.85,4.6-7.89c3.14-2.51,6.24-3.57,9.31-3.18c3.06,0.39,5.69,1.77,7.89,4.12c2.67,2.99,6.95,5.77,12.84,8.37
		c5.89,2.59,12.45,3.89,19.68,3.89c9.11,0,16.06-1.49,20.85-4.48c4.79-2.98,7.26-6.83,7.42-11.55c0.15-4.71-2.08-8.8-6.72-12.25
		c-4.64-3.45-13.08-6.28-25.33-8.48c-15.87-3.14-27.37-7.85-34.52-14.14c-7.15-6.28-10.72-13.98-10.72-23.09
		c0-8.01,2.36-14.65,7.07-19.91c4.71-5.26,10.76-9.19,18.14-11.78c7.38-2.59,15.08-3.89,23.09-3.89c10.37,0,19.56,1.65,27.57,4.95
		c8.01,3.3,14.37,7.86,19.09,13.67c2.2,2.51,3.22,5.15,3.06,7.89c-0.16,2.75-1.49,5.07-4.01,6.95c-2.52,1.73-5.5,2.28-8.95,1.65
		c-3.46-0.63-6.36-2.04-8.72-4.24c-3.93-3.77-8.17-6.36-12.72-7.78c-4.56-1.41-9.82-2.12-15.79-2.12c-6.91,0-12.76,1.18-17.55,3.53
		c-4.79,2.36-7.19,5.81-7.19,10.37c0,2.83,0.74,5.38,2.24,7.66c1.49,2.28,4.44,4.32,8.84,6.13c4.4,1.81,10.84,3.58,19.32,5.3
		c11.78,2.36,21.09,5.34,27.92,8.95c6.83,3.62,11.74,7.82,14.73,12.61c2.98,4.79,4.48,10.33,4.48,16.61
		c0,7.23-1.92,13.75-5.77,19.56c-3.85,5.81-9.51,10.45-16.97,13.9C894.8,625.99,885.49,627.71,874.34,627.71z"/>
	<path class="st4" d="M1013.84,627.71c-12.57,0-23.76-2.86-33.58-8.6c-9.82-5.73-17.52-13.51-23.09-23.33
		c-5.58-9.82-8.37-20.93-8.37-33.34c0-12.73,2.75-24.04,8.25-33.93c5.5-9.9,13.04-17.63,22.62-23.21
		c9.58-5.57,20.58-8.37,32.99-8.37c9.27,0,17.75,1.77,25.45,5.3c7.69,3.53,14.61,8.84,20.74,15.91c2.2,2.52,2.98,5.11,2.36,7.78
		c-0.63,2.67-2.36,5.03-5.18,7.07c-2.2,1.57-4.64,2.08-7.3,1.53c-2.67-0.55-5.11-1.92-7.31-4.12c-7.7-8.17-17.28-12.25-28.75-12.25
		c-8.01,0-15.08,1.85-21.21,5.54c-6.13,3.69-10.92,8.84-14.37,15.43c-3.46,6.6-5.18,14.37-5.18,23.33c0,8.48,1.77,16.02,5.3,22.62
		s8.44,11.82,14.73,15.67c6.28,3.85,13.59,5.77,21.91,5.77c5.5,0,10.33-0.67,14.49-2c4.16-1.33,7.97-3.42,11.43-6.24
		c2.51-2.04,5.1-3.18,7.78-3.42c2.67-0.24,5.03,0.51,7.07,2.24c2.67,2.2,4.16,4.68,4.48,7.42c0.31,2.75-0.63,5.22-2.83,7.42
		C1044.94,622.45,1030.81,627.71,1013.84,627.71z"/>
	<path class="st4" d="M1109.04,579.88c-3.46,0-6.33-1.14-8.6-3.42c-2.28-2.28-3.42-5.14-3.42-8.6V454.75c0-3.61,1.14-6.52,3.42-8.72
		c2.27-2.2,5.14-3.3,8.6-3.3c3.61,0,6.52,1.1,8.72,3.3c2.2,2.2,3.3,5.11,3.3,8.72v113.11c0,3.46-1.1,6.33-3.3,8.6
		C1115.56,578.74,1112.65,579.88,1109.04,579.88z M1109.04,627.01c-3.46,0-6.33-1.14-8.6-3.42c-2.28-2.27-3.42-5.14-3.42-8.6v-105.1
		c0-3.61,1.14-6.52,3.42-8.72c2.27-2.2,5.14-3.3,8.6-3.3c3.61,0,6.52,1.1,8.72,3.3c2.2,2.2,3.3,5.11,3.3,8.72v105.1
		c0,3.46-1.1,6.33-3.3,8.6C1115.56,625.87,1112.65,627.01,1109.04,627.01z M1205.89,627.01c-3.46,0-6.33-1.14-8.6-3.42
		c-2.28-2.27-3.42-5.14-3.42-8.6v-57.97c0-8.95-1.65-16.26-4.95-21.91c-3.3-5.65-7.74-9.86-13.31-12.61
		c-5.58-2.75-11.98-4.12-19.2-4.12c-6.6,0-12.57,1.34-17.91,4.01c-5.34,2.67-9.58,6.24-12.72,10.72c-3.15,4.48-4.71,9.62-4.71,15.43
		h-14.85c0-9.9,2.39-18.73,7.19-26.51c4.79-7.78,11.35-13.94,19.68-18.5c8.32-4.55,17.67-6.83,28.04-6.83
		c10.84,0,20.54,2.32,29.1,6.95c8.56,4.64,15.32,11.43,20.26,20.38c4.95,8.95,7.42,19.95,7.42,32.99v57.97
		c0,3.46-1.14,6.33-3.42,8.6C1212.21,625.87,1209.34,627.01,1205.89,627.01z"/>
	<path class="st4" d="M1316.4,627.71c-12.72,0-23.96-2.79-33.7-8.36c-9.74-5.57-17.4-13.27-22.97-23.09
		c-5.58-9.82-8.37-21.09-8.37-33.81c0-12.88,2.79-24.23,8.37-34.05c5.57-9.82,13.23-17.52,22.97-23.09
		c9.74-5.57,20.97-8.37,33.7-8.37c12.57,0,23.72,2.79,33.46,8.37c9.74,5.58,17.4,13.28,22.97,23.09c5.57,9.82,8.37,21.17,8.37,34.05
		c0,12.72-2.75,24-8.25,33.81c-5.5,9.82-13.12,17.52-22.86,23.09C1340.35,624.93,1329.12,627.71,1316.4,627.71z M1316.4,606.51
		c8.17,0,15.39-1.89,21.68-5.66c6.28-3.77,11.19-8.95,14.73-15.55c3.53-6.6,5.3-14.22,5.3-22.86c0-8.64-1.77-16.3-5.3-22.97
		c-3.53-6.68-8.45-11.9-14.73-15.67c-6.28-3.77-13.51-5.66-21.68-5.66c-8.17,0-15.4,1.89-21.68,5.66
		c-6.28,3.77-11.23,8.99-14.85,15.67c-3.61,6.68-5.42,14.34-5.42,22.97c0,8.64,1.8,16.26,5.42,22.86
		c3.61,6.6,8.56,11.78,14.85,15.55C1301,604.62,1308.23,606.51,1316.4,606.51z"/>
	<path class="st4" d="M1475.45,627.71c-12.72,0-23.96-2.79-33.7-8.36c-9.74-5.57-17.4-13.27-22.97-23.09
		c-5.58-9.82-8.37-21.09-8.37-33.81c0-12.88,2.79-24.23,8.37-34.05c5.57-9.82,13.23-17.52,22.97-23.09
		c9.74-5.57,20.97-8.37,33.7-8.37c12.57,0,23.72,2.79,33.46,8.37c9.74,5.58,17.4,13.28,22.97,23.09c5.57,9.82,8.37,21.17,8.37,34.05
		c0,12.72-2.75,24-8.25,33.81c-5.5,9.82-13.12,17.52-22.86,23.09C1499.41,624.93,1488.18,627.71,1475.45,627.71z M1475.45,606.51
		c8.17,0,15.39-1.89,21.68-5.66c6.28-3.77,11.19-8.95,14.73-15.55c3.53-6.6,5.3-14.22,5.3-22.86c0-8.64-1.77-16.3-5.3-22.97
		c-3.53-6.68-8.45-11.9-14.73-15.67c-6.28-3.77-13.51-5.66-21.68-5.66c-8.17,0-15.4,1.89-21.68,5.66
		c-6.28,3.77-11.23,8.99-14.85,15.67c-3.61,6.68-5.42,14.34-5.42,22.97c0,8.64,1.8,16.26,5.42,22.86
		c3.61,6.6,8.56,11.78,14.85,15.55C1460.06,604.62,1467.28,606.51,1475.45,606.51z"/>
	<path class="st4" d="M1606.7,626.77c-6.91,0-13.04-1.89-18.38-5.65c-5.34-3.77-9.51-8.91-12.49-15.43
		c-2.99-6.52-4.48-14.02-4.48-22.5V454.52c0-3.45,1.1-6.28,3.3-8.48c2.2-2.2,5.03-3.3,8.48-3.3c3.45,0,6.28,1.1,8.48,3.3
		c2.2,2.2,3.3,5.03,3.3,8.48v128.66c0,5.81,1.1,10.6,3.3,14.37c2.2,3.77,5.03,5.65,8.48,5.65h5.89c3.14,0,5.69,1.1,7.66,3.3
		c1.96,2.2,2.95,5.03,2.95,8.48c0,3.46-1.49,6.28-4.48,8.48c-2.99,2.2-6.83,3.3-11.55,3.3H1606.7z"/>
	<path class="st4" d="M1700.25,627.71c-13.04,0-24.62-2.79-34.76-8.36c-10.13-5.57-18.07-13.27-23.8-23.09
		c-5.74-9.82-8.6-21.09-8.6-33.81c0-12.88,2.71-24.23,8.13-34.05c5.42-9.82,12.92-17.52,22.5-23.09c9.58-5.57,20.58-8.37,32.99-8.37
		c12.25,0,22.78,2.71,31.58,8.13c8.8,5.42,15.51,12.88,20.15,22.38c4.63,9.51,6.95,20.46,6.95,32.87c0,2.99-1.02,5.46-3.06,7.42
		c-2.04,1.97-4.64,2.95-7.78,2.95h-94.96v-18.85h94.26l-9.66,6.6c-0.16-7.85-1.73-14.88-4.71-21.09
		c-2.99-6.2-7.23-11.11-12.73-14.73c-5.5-3.61-12.18-5.42-20.03-5.42c-8.95,0-16.61,1.97-22.97,5.89
		c-6.36,3.93-11.19,9.31-14.49,16.14c-3.3,6.83-4.95,14.57-4.95,23.21c0,8.64,1.96,16.34,5.89,23.09
		c3.92,6.76,9.34,12.1,16.26,16.02c6.91,3.93,14.85,5.89,23.8,5.89c4.87,0,9.86-0.9,14.96-2.71c5.1-1.8,9.23-3.89,12.37-6.25
		c2.36-1.73,4.91-2.63,7.66-2.71c2.75-0.08,5.14,0.75,7.19,2.47c2.67,2.36,4.08,4.95,4.24,7.78c0.15,2.83-1.1,5.27-3.77,7.31
		c-5.34,4.24-11.98,7.7-19.91,10.37C1715.05,626.38,1707.47,627.71,1700.25,627.71z"/>
	<path class="st4" d="M1797.8,626.77c-3.77,0-6.68-0.98-8.72-2.95c-2.04-1.96-3.06-4.91-3.06-8.84V509.66
		c0-3.77,1.02-6.68,3.06-8.72c2.04-2.04,4.95-3.06,8.72-3.06c3.92,0,6.87,0.98,8.84,2.95c1.96,1.97,2.95,4.91,2.95,8.84v105.33
		c0,3.77-0.98,6.68-2.95,8.72C1804.67,625.75,1801.72,626.77,1797.8,626.77z M1797.56,546.18c0-9.42,2.32-17.87,6.95-25.33
		c4.63-7.46,10.88-13.39,18.73-17.79c7.85-4.4,16.49-6.6,25.92-6.6c9.43,0,16.45,1.53,21.09,4.59c4.63,3.06,6.4,6.72,5.3,10.96
		c-0.47,2.2-1.38,3.89-2.71,5.07c-1.34,1.18-2.87,1.93-4.59,2.24c-1.73,0.32-3.62,0.24-5.66-0.24c-10.05-2.04-19.09-2.2-27.1-0.47
		c-8.01,1.73-14.34,4.95-18.97,9.66c-4.64,4.71-6.95,10.68-6.95,17.91H1797.56z"/>
</g>
</svg>
