<?xml version="1.0" encoding="utf-8"?>
<!-- Generator: Adobe Illustrator 24.1.2, SVG Export Plug-In . SVG Version: 6.00 Build 0)  -->
<svg version="1.1" id="Ebene_1" xmlns="http://www.w3.org/2000/svg" xmlns:xlink="http://www.w3.org/1999/xlink" x="0px" y="0px"
	 viewBox="0 0 1920 1080" style="enable-background:new 0 0 1920 1080;" xml:space="preserve">
<style type="text/css">
	.st0{fill:url(#SVGID_1_);}
	.st1{fill:url(#SVGID_2_);stroke:url(#SVGID_3_);stroke-miterlimit:10;}
	.st2{fill:url(#SVGID_4_);}
	.st3{fill:url(#SVGID_5_);}
</style>
<g>
	
		<linearGradient id="SVGID_1_" gradientUnits="userSpaceOnUse" x1="5.5347" y1="502.656" x2="63.1748" y2="411.5718" gradientTransform="matrix(0.9743 8.000000e-02 5.130000e-02 -0.9285 6.9472 961.995)">
		<stop  offset="3.862647e-06" style="stop-color:#2D388A"/>
		<stop  offset="0.9972" style="stop-color:#00AEEF"/>
	</linearGradient>
	<polygon class="st0" points="84.9,472.2 11,553.3 97,581.2 	"/>
	
		<linearGradient id="SVGID_2_" gradientUnits="userSpaceOnUse" x1="389.45" y1="636.5701" x2="389.45" y2="388.9974" gradientTransform="matrix(1 0 0 -1 0 1080)">
		<stop  offset="0.2369" style="stop-color:#2D388A"/>
		<stop  offset="0.9972" style="stop-color:#00AEEF"/>
	</linearGradient>
	
		<linearGradient id="SVGID_3_" gradientUnits="userSpaceOnUse" x1="296.6297" y1="669.5478" x2="472.1404" y2="365.5542" gradientTransform="matrix(1 0 0 -1 0 1080)">
		<stop  offset="0" style="stop-color:#2D388A"/>
		<stop  offset="0.9972" style="stop-color:#00AEEF"/>
	</linearGradient>
	<path class="st1" d="M572,656.2c-173.5,68.3-313.8,19.2-365.1-4.4l19.8-200.1l318-8.2L572,656.2z"/>
	<g>
		
			<linearGradient id="SVGID_4_" gradientUnits="userSpaceOnUse" x1="314.8862" y1="740.5681" x2="468.3438" y2="474.7719" gradientTransform="matrix(1 0 0 -1 0 1080)">
			<stop  offset="3.042168e-06" style="stop-color:#2D388A"/>
			<stop  offset="0.9972" style="stop-color:#00AEEF"/>
		</linearGradient>
		<polygon class="st2" points="698.5,472.3 391.6,579 84.7,472.3 231.6,421.3 253.6,413.7 391.6,365.7 		"/>
		
			<linearGradient id="SVGID_5_" gradientUnits="userSpaceOnUse" x1="314.8862" y1="740.5681" x2="468.3438" y2="474.7719" gradientTransform="matrix(1 0 0 -1 0 1080)">
			<stop  offset="3.042168e-06" style="stop-color:#2D388A"/>
			<stop  offset="0.9972" style="stop-color:#00AEEF"/>
		</linearGradient>
		<polygon class="st3" points="698.5,472.3 391.6,579 84.7,472.3 231.6,421.3 253.6,413.7 391.6,365.7 		"/>
	</g>
</g>
<g>
	<path d="M874.3,627.7c-11,0-21.2-1.7-30.5-5.1c-9.3-3.4-16.6-7.7-21.8-12.8c-2.4-2.5-3.3-5.4-3-8.6s1.9-5.8,4.6-7.9
		c3.1-2.5,6.2-3.6,9.3-3.2c3.1,0.4,5.7,1.8,7.9,4.1c2.7,3,7,5.8,12.8,8.4c5.9,2.6,12.5,3.9,19.7,3.9c9.1,0,16.1-1.5,20.8-4.5
		c4.8-3,7.3-6.8,7.4-11.5c0.2-4.7-2.1-8.8-6.7-12.3c-4.6-3.5-13.1-6.3-25.3-8.5c-15.9-3.1-27.4-7.8-34.5-14.1
		c-7.2-6.3-10.7-14-10.7-23.1c0-8,2.4-14.7,7.1-19.9c4.7-5.3,10.8-9.2,18.1-11.8s15.1-3.9,23.1-3.9c10.4,0,19.6,1.6,27.6,5
		c8,3.3,14.4,7.9,19.1,13.7c2.2,2.5,3.2,5.2,3.1,7.9c-0.2,2.8-1.5,5.1-4,7c-2.5,1.7-5.5,2.3-9,1.7c-3.5-0.6-6.4-2-8.7-4.2
		c-3.9-3.8-8.2-6.4-12.7-7.8c-4.6-1.4-9.8-2.1-15.8-2.1c-6.9,0-12.8,1.2-17.5,3.5c-4.8,2.4-7.2,5.8-7.2,10.4c0,2.8,0.7,5.4,2.2,7.7
		c1.5,2.3,4.4,4.3,8.8,6.1s10.8,3.6,19.3,5.3c11.8,2.4,21.1,5.3,27.9,9c6.8,3.6,11.7,7.8,14.7,12.6c3,4.8,4.5,10.3,4.5,16.6
		c0,7.2-1.9,13.8-5.8,19.6c-3.8,5.8-9.5,10.5-17,13.9C894.8,626,885.5,627.7,874.3,627.7z"/>
	<path d="M1013.8,627.7c-12.6,0-23.8-2.9-33.6-8.6c-9.8-5.7-17.5-13.5-23.1-23.3c-5.6-9.8-8.4-20.9-8.4-33.3c0-12.7,2.8-24,8.3-33.9
		c5.5-9.9,13-17.6,22.6-23.2c9.6-5.6,20.6-8.4,33-8.4c9.3,0,17.7,1.8,25.5,5.3c7.7,3.5,14.6,8.8,20.7,15.9c2.2,2.5,3,5.1,2.4,7.8
		c-0.6,2.7-2.4,5-5.2,7.1c-2.2,1.6-4.6,2.1-7.3,1.5c-2.7-0.5-5.1-1.9-7.3-4.1c-7.7-8.2-17.3-12.3-28.8-12.3c-8,0-15.1,1.8-21.2,5.5
		s-10.9,8.8-14.4,15.4c-3.5,6.6-5.2,14.4-5.2,23.3c0,8.5,1.8,16,5.3,22.6s8.4,11.8,14.7,15.7c6.3,3.8,13.6,5.8,21.9,5.8
		c5.5,0,10.3-0.7,14.5-2s8-3.4,11.4-6.2c2.5-2,5.1-3.2,7.8-3.4c2.7-0.2,5,0.5,7.1,2.2c2.7,2.2,4.2,4.7,4.5,7.4
		c0.3,2.8-0.6,5.2-2.8,7.4C1044.9,622.5,1030.8,627.7,1013.8,627.7z"/>
	<path d="M1109,588.4c-3.5,0-8,3.3-10.2,1c-2.3-2.3-1.8-18.2-1.8-21.6V454.8c0-3.6,1.1-6.5,3.4-8.7c2.3-2.2,5.1-3.3,8.6-3.3
		c3.6,0,6.5,1.1,8.7,3.3c2.2,2.2,3.3,5.1,3.3,8.7v113.1c0,3.5-1.1,6.3-3.3,8.6C1115.6,578.7,1112.7,588.4,1109,588.4z M1109,627
		c-3.5,0-6.3-1.1-8.6-3.4c-2.3-2.3-3.4-5.1-3.4-8.6V509.9c0-3.6,1.1-6.5,3.4-8.7c2.3-2.2,5.1-3.3,8.6-3.3c3.6,0,6.5,1.1,8.7,3.3
		c2.2,2.2,3.3,5.1,3.3,8.7V615c0,3.5-1.1,6.3-3.3,8.6C1115.6,625.9,1112.7,627,1109,627z M1205.9,627c-3.5,0-6.3-1.1-8.6-3.4
		c-2.3-2.3-3.4-5.1-3.4-8.6v-58c0-9-1.7-16.3-4.9-21.9c-3.3-5.7-7.7-9.9-13.3-12.6c-5.6-2.8-12-4.1-19.2-4.1c-6.6,0-12.6,1.3-17.9,4
		c-5.3,2.7-9.6,6.2-12.7,10.7c-3.2,4.5-4.7,9.6-4.7,15.4h-14.8c0-9.9,2.4-18.7,7.2-26.5c4.8-7.8,11.3-13.9,19.7-18.5
		c8.3-4.5,17.7-6.8,28-6.8c10.8,0,20.5,2.3,29.1,7c8.6,4.6,15.3,11.4,20.3,20.4c4.9,9,7.4,20,7.4,33v58c0,3.5-1.1,6.3-3.4,8.6
		C1212.2,625.9,1209.3,627,1205.9,627z"/>
	<path d="M1316.4,627.7c-12.7,0-24-2.8-33.7-8.4s-17.4-13.3-23-23.1c-5.6-9.8-8.4-21.1-8.4-33.8c0-12.9,2.8-24.2,8.4-34
		c5.6-9.8,13.2-17.5,23-23.1s21-8.4,33.7-8.4c12.6,0,23.7,2.8,33.5,8.4s17.4,13.3,23,23.1c5.6,9.8,8.4,21.2,8.4,34
		c0,12.7-2.8,24-8.3,33.8c-5.5,9.8-13.1,17.5-22.9,23.1C1340.3,624.9,1329.1,627.7,1316.4,627.7z M1316.4,606.5
		c8.2,0,15.4-1.9,21.7-5.7c6.3-3.8,11.2-9,14.7-15.5c3.5-6.6,5.3-14.2,5.3-22.9s-1.8-16.3-5.3-23c-3.5-6.7-8.4-11.9-14.7-15.7
		c-6.3-3.8-13.5-5.7-21.7-5.7s-15.4,1.9-21.7,5.7c-6.3,3.8-11.2,9-14.8,15.7c-3.6,6.7-5.4,14.3-5.4,23c0,8.6,1.8,16.3,5.4,22.9
		c3.6,6.6,8.6,11.8,14.8,15.5C1301,604.6,1308.2,606.5,1316.4,606.5z"/>
	<path d="M1475.4,627.7c-12.7,0-24-2.8-33.7-8.4s-17.4-13.3-23-23.1c-5.6-9.8-8.4-21.1-8.4-33.8c0-12.9,2.8-24.2,8.4-34
		c5.6-9.8,13.2-17.5,23-23.1s21-8.4,33.7-8.4c12.6,0,23.7,2.8,33.5,8.4s17.4,13.3,23,23.1c5.6,9.8,8.4,21.2,8.4,34
		c0,12.7-2.8,24-8.3,33.8c-5.5,9.8-13.1,17.5-22.9,23.1C1499.4,624.9,1488.2,627.7,1475.4,627.7z M1475.4,606.5
		c8.2,0,15.4-1.9,21.7-5.7c6.3-3.8,11.2-9,14.7-15.5c3.5-6.6,5.3-14.2,5.3-22.9s-1.8-16.3-5.3-23c-3.5-6.7-8.4-11.9-14.7-15.7
		c-6.3-3.8-13.5-5.7-21.7-5.7s-15.4,1.9-21.7,5.7c-6.3,3.8-11.2,9-14.8,15.7c-3.6,6.7-5.4,14.3-5.4,23c0,8.6,1.8,16.3,5.4,22.9
		c3.6,6.6,8.6,11.8,14.8,15.5C1460.1,604.6,1467.3,606.5,1475.4,606.5z"/>
	<path d="M1606.7,626.8c-6.9,0-13-1.9-18.4-5.7c-5.3-3.8-9.5-8.9-12.5-15.4c-3-6.5-4.5-14-4.5-22.5V454.5c0-3.5,1.1-6.3,3.3-8.5
		c2.2-2.2,5-3.3,8.5-3.3s6.3,1.1,8.5,3.3c2.2,2.2,3.3,5,3.3,8.5v128.7c0,5.8,1.1,10.6,3.3,14.4c2.2,3.8,5,5.7,8.5,5.7h5.9
		c3.1,0,5.7,1.1,7.7,3.3c2,2.2,2.9,5,2.9,8.5c0,3.5-1.5,6.3-4.5,8.5c-3,2.2-6.8,3.3-11.6,3.3L1606.7,626.8L1606.7,626.8z"/>
	<path d="M1700.3,627.7c-13,0-24.6-2.8-34.8-8.4c-10.1-5.6-18.1-13.3-23.8-23.1c-5.7-9.8-8.6-21.1-8.6-33.8c0-12.9,2.7-24.2,8.1-34
		s12.9-17.5,22.5-23.1s20.6-8.4,33-8.4c12.3,0,22.8,2.7,31.6,8.1c8.8,5.4,15.5,12.9,20.2,22.4c4.6,9.5,6.9,20.5,6.9,32.9
		c0,3-1,5.5-3.1,7.4c-2,2-4.6,3-7.8,3h-95v-18.8h94.3l-9.7,6.6c-0.2-7.8-1.7-14.9-4.7-21.1c-3-6.2-7.2-11.1-12.7-14.7
		c-5.5-3.6-12.2-5.4-20-5.4c-8.9,0-16.6,2-23,5.9c-6.4,3.9-11.2,9.3-14.5,16.1s-4.9,14.6-4.9,23.2s2,16.3,5.9,23.1
		c3.9,6.8,9.3,12.1,16.3,16c6.9,3.9,14.8,5.9,23.8,5.9c4.9,0,9.9-0.9,15-2.7c5.1-1.8,9.2-3.9,12.4-6.3c2.4-1.7,4.9-2.6,7.7-2.7
		s5.1,0.8,7.2,2.5c2.7,2.4,4.1,5,4.2,7.8c0.2,2.8-1.1,5.3-3.8,7.3c-5.3,4.2-12,7.7-19.9,10.4
		C1715.1,626.4,1707.5,627.7,1700.3,627.7z"/>
	<path d="M1797.8,626.8c-3.8,0-6.7-1-8.7-3c-2-2-3.1-4.9-3.1-8.8V509.7c0-3.8,1-6.7,3.1-8.7s4.9-3.1,8.7-3.1c3.9,0,6.9,1,8.8,3
		c2,2,2.9,4.9,2.9,8.8V615c0,3.8-1,6.7-2.9,8.7C1804.7,625.8,1801.7,626.8,1797.8,626.8z M1797.6,546.2c0-9.4,2.3-17.9,6.9-25.3
		s10.9-13.4,18.7-17.8s16.5-6.6,25.9-6.6s16.4,1.5,21.1,4.6c4.6,3.1,6.4,6.7,5.3,11c-0.5,2.2-1.4,3.9-2.7,5.1
		c-1.3,1.2-2.9,1.9-4.6,2.2c-1.7,0.3-3.6,0.2-5.7-0.2c-10.1-2-19.1-2.2-27.1-0.5c-8,1.7-14.3,5-19,9.7c-4.6,4.7-6.9,10.7-6.9,17.9
		L1797.6,546.2L1797.6,546.2z"/>
</g>
</svg>
